<svg xmlns="http://www.w3.org/2000/svg" xml:space="preserve" width="64" height="64" viewBox="0 0 16.933 16.933"><path d="M2.132 12.092a.25.25 0 1 1-.41.288 7.73 7.73 0 0 1-1.4-4.439c0-2.136.866-4.07 2.266-5.47A7.7 7.7 0 0 1 8.058.206a7.71 7.71 0 0 1 5.731 2.54l.005.004a7.7 7.7 0 0 1 2 5.191c0 1.996.118 4.16-1.122 5.532l-.004.004c-.087.095.2.47-.265.278-1.4 1.4-4.209 1.922-6.345 1.922a7.724 7.724 0 0 1-5.05-1.876.25.25 0 0 1 .329-.378 7.216 7.216 0 0 0 4.721 1.752c1.998 0 4.681-.466 5.99-1.775q.093-.093.183-.19c.005-.392-.846-1.897-.894-1.98l-1.035-1.272a.58.58 0 0 1-.132-.37v-.81a.1.1 0 0 0-.005-.033.1.1 0 0 0-.02-.028l-.232-.231a.1.1 0 0 0-.026-.02.1.1 0 0 0-.034-.006h-.748a.58.58 0 0 1-.416-.173l-.589-.589-.027-.02a.1.1 0 0 0-.033-.005H9.012a.58.58 0 0 1-.416-.173l-.398-.398a.6.6 0 0 1-.12-.176l-.008-.015a.6.6 0 0 1-.044-.226V5.453a.58.58 0 0 1 .172-.415l.672-.672a.59.59 0 0 1 .815-.017l.183.182.028.02a.1.1 0 0 0 .033.006h.215a.58.58 0 0 1 .422.179l.548.565q.015.015.028.02.012.006.035.006h.994a.1.1 0 0 0 .033-.005.1.1 0 0 0 .027-.02l.553-.554a.6.6 0 0 1 .176-.12l.016-.008a.6.6 0 0 1 .225-.044h.318a.1.1 0 0 0 .033-.006.1.1 0 0 0 .028-.02l.548-.548a7 7 0 0 0-.532-.718l-.358.358a.25.25 0 0 1-.178.074h-1.117a.75.75 0 0 1-.341-.082l-.384-.206a.26.26 0 0 0-.158-.028.25.25 0 0 0-.142.073l-.022.022a.76.76 0 0 1-.535.221H9.343a.25.25 0 0 1-.219-.373l.477-.853a.9.9 0 0 1 .35-.355.93.93 0 0 1 .48-.117l.932.03a.4.4 0 0 0 .12-.012l.006-.002a.4.4 0 0 0 .116-.054l.278-.18A7.2 7.2 0 0 0 8.057.707a7.2 7.2 0 0 0-3.014.657h.126a.9.9 0 0 1 .582.207l.218.178a.4.4 0 0 0 .124.072q.064.022.142.022h1.041c.13 0 .25.041.35.114l.01.009a.6.6 0 0 1 .202.292.59.59 0 0 1-.23.659c-.143.089-.28.138-.437.205-.182 1.494-1.215 1.768-3.103 2.271l-.66.177a.1.1 0 0 0-.045.03.1.1 0 0 0-.016.053v.173a.1.1 0 0 0 .007.037l.025.03.674.548a.58.58 0 0 1 .218.456.58.58 0 0 1-.218.457l-.102.082a.6.6 0 0 1-.269.124l-.013.002a.6.6 0 0 1-.282-.027l-.965-.336a.585.585 0 0 1-.395-.555v-.125a.1.1 0 0 0-.01-.057L1.07 6.06A7.2 7.2 0 0 0 .823 7.94a7.21 7.21 0 0 0 1.308 4.15zm11.726.172A7.2 7.2 0 0 0 15.29 7.94a7.2 7.2 0 0 0-.898-3.494l-.46.46a.58.58 0 0 1-.416.172h-.319a.1.1 0 0 0-.033.005l-.027.02-.553.553a.58.58 0 0 1-.416.173h-.994a.59.59 0 0 1-.422-.18l-.549-.565a.1.1 0 0 0-.027-.02.1.1 0 0 0-.035-.006h-.215a.6.6 0 0 1-.225-.044l-.016-.007a.6.6 0 0 1-.175-.121l-.172-.173a.088.088 0 0 0-.115.007l-.672.673a.1.1 0 0 0-.02.027.1.1 0 0 0-.006.034v1.232q0 .021.006.033c.023.055.355.363.417.426l.027.02q.012.004.034.004h1.027a.6.6 0 0 1 .226.045l.015.007q.098.045.175.12l.589.59q.015.015.027.02a.1.1 0 0 0 .034.005h.748a.58.58 0 0 1 .416.173l.231.232a.57.57 0 0 1 .173.415v.81l.003.028.016.026 1.034 1.272a.6.6 0 0 1 .1.174l.005.02a.6.6 0 0 1 .028.177v.98zm-.6-9.352-.085-.086a7 7 0 0 0-.84-.72l-.455.295a1 1 0 0 1-.254.116l-.013.003a1 1 0 0 1-.263.03l-.93-.03a.43.43 0 0 0-.222.051.43.43 0 0 0-.159.165l-.267.478h.59a.3.3 0 0 0 .098-.017.3.3 0 0 0 .081-.057l.023-.022a.75.75 0 0 1 .892-.13c.135.072.283.167.425.22a.3.3 0 0 0 .062.007h1.013l.302-.303zm-8.94 5.014-.597.494-.016.024a.1.1 0 0 0-.007.037v.303a.086.086 0 0 0 .086.086h.68c.14 0 .252.113.252.251l-.015.216c-.128 1.896-.214 3.166.356 4.102.097.158.32.386.584.558.104.069.214.127.322.165v-.733c0-.153.044-.297.124-.418a.76.76 0 0 1 .337-.277l.268-.114a.26.26 0 0 0 .126-.117l.004-.008a.26.26 0 0 0 .017-.163l-.055-.26a.76.76 0 0 1 .03-.427l.006-.015a.76.76 0 0 1 .256-.326l.367-.27a.26.26 0 0 0 .078-.088.3.3 0 0 0 .026-.116v-.003q0-.182.078-.337l.01-.018a.76.76 0 0 1 .214-.249 1.3 1.3 0 0 0 .365-.429q.087-.16.145-.357h-.31a.9.9 0 0 1-.354-.068l-.014-.007a.9.9 0 0 1-.283-.196l-.455-.452a.4.4 0 0 0-.134-.094.4.4 0 0 0-.163-.03H5.048a.59.59 0 0 1-.589-.588V7.99a.1.1 0 0 0-.017-.054.1.1 0 0 0-.08-.033.1.1 0 0 0-.044.02zm-.91.102.59-.489a.6.6 0 0 1 .302-.132.59.59 0 0 1 .554.246l.016.022c.058.092.09.201.09.316v.012a.086.086 0 0 0 .086.086h1.598a.92.92 0 0 1 .653.27l.453.453q.06.06.126.09l.01.004c.048.02.214 0 .161.03l-.106.058c.156.015.275.127.247.292-.05.306.59.517.464.748a1.8 1.8 0 0 1-.505.591.25.25 0 0 0-.071.08l-.004.008a.26.26 0 0 0-.025.115v.003a.75.75 0 0 1-.31.609l-.367.27a.25.25 0 0 0-.086.105l-.003.009a.26.26 0 0 0-.009.145l.056.26a.75.75 0 0 1-.06.49l-.007.017a.76.76 0 0 1-.378.346l-.267.114a.26.26 0 0 0-.114.092.26.26 0 0 0-.04.141v1.033a.25.25 0 0 1-.25.251c-.285 0-.584-.124-.847-.296-.326-.212-.61-.507-.738-.717-.647-1.061-.566-2.375-.433-4.327H3.78a.59.59 0 0 1-.414-.172l-.001-.002a.59.59 0 0 1-.173-.415v-.303a.58.58 0 0 1 .194-.436l.02-.017zm.745-6.177A7.237 7.237 0 0 0 1.22 5.577l1.002.426a.5.5 0 0 1 .237.217.6.6 0 0 1 .073.299v.124q0 .031.014.05.015.022.043.031l.966.337a.1.1 0 0 0 .04.005.1.1 0 0 0 .043-.02l.101-.082a.1.1 0 0 0 .024-.03.1.1 0 0 0 .008-.037.1.1 0 0 0-.008-.037.1.1 0 0 0-.024-.03l-.674-.549a.58.58 0 0 1-.217-.456v-.172a.584.584 0 0 1 .433-.566l.663-.179c1.726-.46 2.644-.704 2.745-1.978a.25.25 0 0 1 .153-.211c.13-.056.365-.131.487-.216a.1.1 0 0 0 .034-.042.1.1 0 0 0 0-.055.1.1 0 0 0-.027-.042l-.003-.002a.1.1 0 0 0-.053-.016H6.24a.9.9 0 0 1-.583-.207l-.218-.178a.4.4 0 0 0-.124-.072.4.4 0 0 0-.142-.022h-.93a.2.2 0 0 1-.086-.016zM2.707 12.81a.25.25 0 1 1-.373.336l-.025-.029a.25.25 0 1 1 .374-.335z"/><path fill-rule="evenodd" d="M81.739 6.61c.312.182.503.515.503.876V31.36a24.45 24.45 0 0 1-7.164 17.291 24.45 24.45 0 0 1-34.581 0 24.45 24.45 0 0 1-7.164-17.29V7.485c0-.361.191-.694.503-.876 15.965-9.252 31.935-9.252 47.9 0zM44.823 17.857c1.66-.953 3.314-.94 4.973.004a2.03 2.03 0 0 0 2.767-.758 2.03 2.03 0 0 0-.759-2.766c-3.001-1.708-5.999-1.72-9 .004a2.024 2.024 0 0 0-.747 2.766 2.024 2.024 0 0 0 2.767.746zm20.963 0c1.66-.953 3.314-.94 4.973.004a2.03 2.03 0 0 0 2.766-.758 2.03 2.03 0 0 0-.758-2.766c-3.002-1.708-6-1.72-9 .004a2.024 2.024 0 0 0-.747 2.766 2.024 2.024 0 0 0 2.766.746zm-2.02 18.772c-3.987 2.292-7.974 2.267-11.962-.004a2.03 2.03 0 0 0-2.766.759 2.03 2.03 0 0 0 .758 2.766c5.33 3.034 10.66 3.058 15.986-.004a2.024 2.024 0 0 0 .746-2.766 2.024 2.024 0 0 0-2.766-.747z" style="stroke-width:1.03837" transform="translate(-.359 5.335)scale(.20674)"/></svg>