<svg xmlns="http://www.w3.org/2000/svg" xml:space="preserve" width="82.459" height="82.347"><g style="fill:#000;fill-opacity:1" transform="translate(-10.112 -9.668)"><circle cx="21.243" cy="80.884" r="11.131" style="fill:#000;fill-opacity:1"/><path d="M18.229 40.126a7.626 7.626 0 1 0 0 15.253c15.917 0 28.865 12.95 28.865 28.865a7.626 7.626 0 0 0 7.628 7.627 7.627 7.627 0 0 0 7.627-7.627c0-24.326-19.793-44.118-44.12-44.118z" style="fill:#000;fill-opacity:1"/><path d="M17.997 9.668a7.628 7.628 0 0 0 0 15.254c32.708.001 59.32 26.613 59.32 59.322a7.627 7.627 0 1 0 15.254 0c0-41.118-33.453-74.573-74.574-74.576z" style="fill:#000;fill-opacity:1"/></g></svg>