<svg xmlns="http://www.w3.org/2000/svg" width="256" height="256" viewBox="0 0 67.733 67.733"><path d="m15.006 269.992 21.133 12.31-21.097 12.158zM15.615 267.272c.278.464 1.64 1.386 1.64 1.386l21.37 12.198 8.26-4.801-31.908-18.819v8.17s.243 1.209.638 1.866z" style="fill-opacity:1" transform="matrix(.91329 0 0 .91329 3.215 -206.45)"/><path d="M15.042 231.807s28.803 16.586 41.025 24.189c3.406 2.118 4.066 9.736 1.677 12.47-2.246 2.57-8.397 6.157-8.397 6.157s-21.18-12.47-32.047-18.975c-.697-.417-1.18-1.403-1.551-2.158-.37-.755-.527-1.885-.577-2.755-.36-6.32-.13-18.928-.13-18.928z" style="fill-opacity:1;stroke-width:1.73822576;stroke-miterlimit:4;stroke-dasharray:none" transform="matrix(.91329 0 0 .91329 3.215 -206.45)"/></svg>