<svg xmlns="http://www.w3.org/2000/svg" width="120" height="120"><path fill="unset" d="M60 3.81A56.19 56.19 0 0 0 3.81 60 56.19 56.19 0 0 0 60 116.19 56.19 56.19 0 0 0 116.19 60 56.19 56.19 0 0 0 60 3.81zm26.059 26.31c3.053 0 5.877.433 8.472 1.302.153.053.56.216 1.221.488.712.271 1.475.678 2.289 1.22a9.23 9.23 0 0 1 2.215 1.874 4.653 4.653 0 0 1 1.22 2.523c.102.435.052 1.031-.152 1.791-.203.76-.789 1.494-1.756 2.2v-.004c-.763.543-1.68.868-2.748.976a12.863 12.863 0 0 1-3.205-.08 23.558 23.558 0 0 1-3.207-.894 18.212 18.212 0 0 1-2.67-1.385c-1.323 0-2.698.054-4.123.162a88.043 88.043 0 0 0-4.045.244c-1.374.163-2.57.244-3.588.244-1.628.109-3.307.217-5.037.326a77.39 77.39 0 0 0-5.037.327c.204.108.459.326.764.652.865.923 1.246 1.845 1.144 2.768-.101.868-.432 1.602-.992 2.199-3.46 3.582-6.565 6.92-9.312 10.013a190.04 190.04 0 0 0-7.862 9.446 184.68 184.68 0 0 0-7.328 9.935A337.264 337.264 0 0 0 34.69 88.09c-.203.38-.584.76-1.144 1.14-.56.435-1.373.653-2.441.653h-.536c-1.272-.108-2.594-.517-3.968-1.223-1.323-.706-2.265-1.627-2.825-2.767-.56-1.249-.509-2.417.153-3.502 2.646-4.18 5.114-7.98 7.404-11.4 2.34-3.42 4.706-6.676 7.098-9.77a176.462 176.462 0 0 1 7.556-9.121 291.555 291.555 0 0 1 8.778-9.608l-8.166 1.303a992.043 992.043 0 0 1-10.686 1.547c-3.51.488-6.64.732-9.389.732h-.992a4.91 4.91 0 0 1-.84-.08 5.723 5.723 0 0 1-2.52-.732 8.156 8.156 0 0 1-1.831-1.71 13.74 13.74 0 0 1-1.297-2.198c-.305-.815-.484-1.548-.535-2.2-.153-1.248.178-2.28.992-3.093.61-.652 1.426-1.086 2.443-1.303 1.069-.272 2.215-.272 3.436 0 .661.108 2.035.108 4.121 0a171.41 171.41 0 0 0 7.48-.57c2.85-.272 5.877-.57 9.083-.895 3.205-.326 6.234-.653 9.083-.979a747.48 747.48 0 0 0 6.03-.65 135.1 135.1 0 0 1 5.344-.652c1.628-.163 3.052-.298 4.273-.407 1.272-.108 2.29-.162 3.053-.162h1.68l1.68-.162c2.849-.108 5.8-.162 8.853-.162zm-4.403 21.07a7.745 11.31 50.392 0 1 5.795 9.362 7.745 11.31 50.392 0 1-12.926 9.36 7.745 11.31 50.392 0 1-5.793-9.36 7.745 11.31 50.392 0 1 12.924-9.362zm7.64 18.739a8.896 12.992 50.392 0 1 6.657 10.75 8.896 12.992 50.392 0 1-14.848 10.752 8.896 12.992 50.392 0 1-6.654-10.752 8.896 12.992 50.392 0 1 14.846-10.75zm-26.07 3.406a6.323 9.234 50.392 0 1 4.731 7.64 6.323 9.234 50.392 0 1-10.553 7.641 6.323 9.234 50.392 0 1-4.73-7.64 6.323 9.234 50.392 0 1 10.553-7.641z"/></svg>