<svg xmlns="http://www.w3.org/2000/svg" width="256" height="256"><path stroke="#000" d="m1.457 128.006 19.596-33.94L80.407 128l-59.289 34.026zm253.111.08-19.596 33.94-59.354-33.934 59.289-34.026zM25.187 86.892l15.817-27.396L230.81 169.084l-15.818 27.396zm.005 82.19 63.145-36.457 31.785 18.35-79.113 45.503zm205.622-82.191-63.145 36.457-31.785-18.35 79.113-45.503zM112.181 237.583v-72.812l15.864-9.159 15.78 9.111-.01 72.86zm0-219.175V91.22l15.864 9.159 15.78-9.111-.01-72.86zM45.085 203.536l58.98-34.052-.032 68.099-39.306.009zm165.83 0-58.98-34.052.032 68.099 39.306.009zM45.085 52.455l58.98 34.052-.032-68.099-39.306-.009zm165.83 0-58.98 34.052.032-68.099 39.306-.009z"/></svg>